<!--
  BulleBrowser wordmark — light (white) text variant for use on dark
  backgrounds. Mirrors wordmark.svg with white fill so the splash, the
  marketing dark-section, and the OG card all stay legible.

  To replace with the master vector source, overwrite this file. Then run:

      cp packages/brand-tokens/assets/wordmark-light.svg apps/web/public/
-->
<svg xmlns="http://www.w3.org/2000/svg" viewBox="0 0 1680 420" width="1680" height="420" role="img" aria-label="BulleBrowser">
  <defs>
    <mask id="bb-stencil-light" maskUnits="userSpaceOnUse" x="0" y="0" width="1680" height="420">
      <rect width="1680" height="420" fill="white"/>
      <rect x="40"   y="120" width="120" height="14" fill="black"/>
      <rect x="40"   y="232" width="120" height="14" fill="black"/>
      <rect x="180"  y="232" width="100" height="14" fill="black"/>
      <rect x="300"  y="170" width="36"  height="14" fill="black"/>
      <rect x="350"  y="170" width="36"  height="14" fill="black"/>
      <rect x="400"  y="232" width="110" height="14" fill="black"/>
      <rect x="560"  y="160" width="120" height="14" fill="black"/>
      <rect x="560"  y="278" width="120" height="14" fill="black"/>
      <rect x="700"  y="200" width="50"  height="14" fill="black"/>
      <rect x="780"  y="200" width="120" height="14" fill="black"/>
      <rect x="930"  y="232" width="170" height="14" fill="black"/>
      <rect x="1130" y="200" width="100" height="14" fill="black"/>
      <rect x="1130" y="278" width="100" height="14" fill="black"/>
      <rect x="1260" y="200" width="110" height="14" fill="black"/>
      <rect x="1260" y="260" width="110" height="14" fill="black"/>
      <rect x="1400" y="232" width="60"  height="14" fill="black"/>
    </mask>
    <style>
      .bb-wm-glyph-light {
        font-family: 'Inter', 'Helvetica Neue', 'Arial Black', sans-serif;
        font-weight: 800;
        font-size: 320px;
        letter-spacing: -10px;
        font-stretch: 90%;
        fill: #FFFFFF;
      }
    </style>
  </defs>
  <g mask="url(#bb-stencil-light)">
    <text x="32" y="328" class="bb-wm-glyph-light">BulleBrowser</text>
  </g>
</svg>
